<mxfile host="app.diagrams.net" modified="2022-07-15T13:05:37.411Z" agent="5.0 (Macintosh; Intel Mac OS X 10_15_7) AppleWebKit/537.36 (KHTML, like Gecko) Chrome/103.0.0.0 Safari/537.36" etag="S1wV4J_kJgw1DcEvLzUm" version="20.1.1" type="github">
  <diagram id="JowtuLAvawgkWtr8-Pc0" name="Page-1">
    <mxGraphModel dx="726" dy="440" grid="1" gridSize="10" guides="1" tooltips="1" connect="1" arrows="1" fold="1" page="1" pageScale="1" pageWidth="827" pageHeight="583" math="0" shadow="0">
      <root>
        <mxCell id="0" />
        <mxCell id="1" parent="0" />
        <mxCell id="Rk7ZDeNzGQP_jlXVGPb2-1" value="" style="sketch=0;points=[[0,0,0],[0.25,0,0],[0.5,0,0],[0.75,0,0],[1,0,0],[0,1,0],[0.25,1,0],[0.5,1,0],[0.75,1,0],[1,1,0],[0,0.25,0],[0,0.5,0],[0,0.75,0],[1,0.25,0],[1,0.5,0],[1,0.75,0]];outlineConnect=0;fontColor=#232F3E;gradientColor=#F78E04;gradientDirection=north;fillColor=#D05C17;strokeColor=#ffffff;dashed=0;verticalLabelPosition=bottom;verticalAlign=top;align=center;html=1;fontSize=12;fontStyle=0;aspect=fixed;shape=mxgraph.aws4.resourceIcon;resIcon=mxgraph.aws4.elastic_beanstalk;" vertex="1" parent="1">
          <mxGeometry x="126" y="62" width="40" height="40" as="geometry" />
        </mxCell>
        <mxCell id="Rk7ZDeNzGQP_jlXVGPb2-6" value="&lt;br style=&quot;text-align: left;&quot;&gt;&lt;br style=&quot;text-align: left;&quot;&gt;&lt;ul style=&quot;text-align: left;&quot;&gt;&lt;li&gt;to migrate workloads&lt;/li&gt;&lt;li&gt;to deploy Web Applications&lt;/li&gt;&lt;li&gt;to automate workload&lt;/li&gt;&lt;/ul&gt;" style="text;html=1;align=center;verticalAlign=middle;resizable=0;points=[];autosize=1;strokeColor=none;fillColor=none;" vertex="1" parent="1">
          <mxGeometry x="148" y="30" width="210" height="110" as="geometry" />
        </mxCell>
        <mxCell id="Rk7ZDeNzGQP_jlXVGPb2-7" value="Useful:" style="text;html=1;align=center;verticalAlign=middle;resizable=0;points=[];autosize=1;strokeColor=none;fillColor=none;" vertex="1" parent="1">
          <mxGeometry x="178" y="50" width="60" height="30" as="geometry" />
        </mxCell>
        <mxCell id="Rk7ZDeNzGQP_jlXVGPb2-8" value="AWS CodeCommit" style="sketch=0;outlineConnect=0;fontColor=#232F3E;gradientColor=none;strokeColor=#ffffff;fillColor=#232F3E;dashed=0;verticalLabelPosition=middle;verticalAlign=bottom;align=center;html=1;whiteSpace=wrap;fontSize=10;fontStyle=1;spacing=3;shape=mxgraph.aws4.productIcon;prIcon=mxgraph.aws4.codecommit;" vertex="1" parent="1">
          <mxGeometry x="220" y="200" width="40" height="70" as="geometry" />
        </mxCell>
        <mxCell id="Rk7ZDeNzGQP_jlXVGPb2-9" value="AWS CodeBuild" style="sketch=0;outlineConnect=0;fontColor=#232F3E;gradientColor=none;strokeColor=#ffffff;fillColor=#232F3E;dashed=0;verticalLabelPosition=middle;verticalAlign=bottom;align=center;html=1;whiteSpace=wrap;fontSize=10;fontStyle=1;spacing=3;shape=mxgraph.aws4.productIcon;prIcon=mxgraph.aws4.codebuild;" vertex="1" parent="1">
          <mxGeometry x="280" y="200" width="40" height="70" as="geometry" />
        </mxCell>
        <mxCell id="Rk7ZDeNzGQP_jlXVGPb2-10" value="AWS CodePipeline" style="sketch=0;outlineConnect=0;fontColor=#232F3E;gradientColor=none;strokeColor=#ffffff;fillColor=#232F3E;dashed=0;verticalLabelPosition=middle;verticalAlign=bottom;align=center;html=1;whiteSpace=wrap;fontSize=10;fontStyle=1;spacing=3;shape=mxgraph.aws4.productIcon;prIcon=mxgraph.aws4.codepipeline;" vertex="1" parent="1">
          <mxGeometry x="220" y="270" width="40" height="70" as="geometry" />
        </mxCell>
        <mxCell id="Rk7ZDeNzGQP_jlXVGPb2-11" value="Without having to learn &lt;br&gt;about infrastructure&amp;nbsp;&lt;br&gt;that run thoses app" style="text;html=1;align=center;verticalAlign=middle;resizable=0;points=[];autosize=1;strokeColor=none;fillColor=none;" vertex="1" parent="1">
          <mxGeometry x="46" y="110" width="150" height="60" as="geometry" />
        </mxCell>
        <mxCell id="Rk7ZDeNzGQP_jlXVGPb2-12" value="" style="strokeWidth=1;html=1;shape=mxgraph.flowchart.annotation_1;align=left;pointerEvents=1;fontColor=#000033;fillColor=none;strokeColor=#3399FF;" vertex="1" parent="1">
          <mxGeometry x="56" y="118" width="12" height="43" as="geometry" />
        </mxCell>
        <mxCell id="Rk7ZDeNzGQP_jlXVGPb2-13" value="" style="strokeWidth=1;html=1;shape=mxgraph.flowchart.annotation_1;align=left;pointerEvents=1;fontColor=#000033;fillColor=none;direction=west;strokeColor=#3399FF;" vertex="1" parent="1">
          <mxGeometry x="170" y="118" width="12" height="43" as="geometry" />
        </mxCell>
        <mxCell id="Rk7ZDeNzGQP_jlXVGPb2-14" value="" style="verticalLabelPosition=bottom;verticalAlign=top;html=1;shape=mxgraph.basic.rect;fillColor2=none;strokeWidth=1;size=20;indent=5;fillColor=none;strokeColor=#FF3333;" vertex="1" parent="1">
          <mxGeometry x="200" y="107" width="117" height="16" as="geometry" />
        </mxCell>
        <mxCell id="Rk7ZDeNzGQP_jlXVGPb2-15" value="" style="line;strokeWidth=1;direction=south;html=1;fillColor=none;strokeColor=#FF3333;" vertex="1" parent="1">
          <mxGeometry x="253.5" y="123" width="10" height="60" as="geometry" />
        </mxCell>
        <mxCell id="Rk7ZDeNzGQP_jlXVGPb2-16" value="" style="ellipse;whiteSpace=wrap;html=1;strokeColor=#FF3333;strokeWidth=1;fillColor=none;dashed=1;" vertex="1" parent="1">
          <mxGeometry x="147" y="184" width="224" height="164" as="geometry" />
        </mxCell>
        <mxCell id="Rk7ZDeNzGQP_jlXVGPb2-17" value="" style="verticalLabelPosition=bottom;verticalAlign=top;html=1;shape=mxgraph.basic.rect;fillColor2=none;strokeWidth=1;size=20;indent=5;fillColor=none;strokeColor=#FF3333;" vertex="1" parent="1">
          <mxGeometry x="200" y="90" width="146" height="15" as="geometry" />
        </mxCell>
        <mxCell id="Rk7ZDeNzGQP_jlXVGPb2-18" value="" style="line;strokeWidth=1;direction=west;html=1;fillColor=none;strokeColor=#FF3333;" vertex="1" parent="1">
          <mxGeometry x="348" y="94" width="60" height="10" as="geometry" />
        </mxCell>
        <mxCell id="Rk7ZDeNzGQP_jlXVGPb2-19" value="Elastic Beanstalk&lt;br&gt;Console" style="verticalLabelPosition=bottom;sketch=0;html=1;fillColor=#000000;strokeColor=#ffffff;verticalAlign=top;align=center;points=[[0,0.5,0],[0.125,0.25,0],[0.25,0,0],[0.5,0,0],[0.75,0,0],[0.875,0.25,0],[1,0.5,0],[0.875,0.75,0],[0.75,1,0],[0.5,1,0],[0.125,0.75,0]];pointerEvents=1;shape=mxgraph.cisco_safe.compositeIcon;bgIcon=mxgraph.cisco_safe.design.blank_device;resIcon=mxgraph.cisco_safe.design.mgmt_console;dashed=1;" vertex="1" parent="1">
          <mxGeometry x="470" y="95" width="50" height="45" as="geometry" />
        </mxCell>
        <mxCell id="Rk7ZDeNzGQP_jlXVGPb2-21" value="" style="endArrow=none;html=1;rounded=0;" edge="1" parent="1">
          <mxGeometry width="50" height="50" relative="1" as="geometry">
            <mxPoint x="440" y="230" as="sourcePoint" />
            <mxPoint x="475" y="184" as="targetPoint" />
          </mxGeometry>
        </mxCell>
        <mxCell id="Rk7ZDeNzGQP_jlXVGPb2-22" value="" style="endArrow=none;html=1;rounded=0;" edge="1" parent="1">
          <mxGeometry width="50" height="50" relative="1" as="geometry">
            <mxPoint x="560" y="230" as="sourcePoint" />
            <mxPoint x="524" y="183" as="targetPoint" />
          </mxGeometry>
        </mxCell>
        <mxCell id="Rk7ZDeNzGQP_jlXVGPb2-23" value="" style="endArrow=none;html=1;rounded=0;" edge="1" parent="1">
          <mxGeometry width="50" height="50" relative="1" as="geometry">
            <mxPoint x="500" y="243" as="sourcePoint" />
            <mxPoint x="500" y="183" as="targetPoint" />
          </mxGeometry>
        </mxCell>
        <mxCell id="Rk7ZDeNzGQP_jlXVGPb2-24" value="metrics" style="text;html=1;align=center;verticalAlign=middle;resizable=0;points=[];autosize=1;strokeColor=none;fillColor=none;" vertex="1" parent="1">
          <mxGeometry x="390" y="221" width="60" height="30" as="geometry" />
        </mxCell>
        <mxCell id="Rk7ZDeNzGQP_jlXVGPb2-25" value="events" style="text;html=1;align=center;verticalAlign=middle;resizable=0;points=[];autosize=1;strokeColor=none;fillColor=none;" vertex="1" parent="1">
          <mxGeometry x="478" y="233" width="60" height="30" as="geometry" />
        </mxCell>
        <mxCell id="Rk7ZDeNzGQP_jlXVGPb2-26" value="environment&amp;nbsp;&lt;br&gt;states" style="text;html=1;align=center;verticalAlign=middle;resizable=0;points=[];autosize=1;strokeColor=none;fillColor=none;" vertex="1" parent="1">
          <mxGeometry x="551" y="220" width="90" height="40" as="geometry" />
        </mxCell>
      </root>
    </mxGraphModel>
  </diagram>
</mxfile>
